<?xml version="1.0" standalone="no"?><!DOCTYPE svg PUBLIC "-//W3C//DTD SVG 1.1//EN" "http://www.w3.org/Graphics/SVG/1.1/DTD/svg11.dtd"><svg t="1750597961172" class="icon" viewBox="0 0 1102 1024" version="1.1" xmlns="http://www.w3.org/2000/svg" p-id="2792" xmlns:xlink="http://www.w3.org/1999/xlink" width="215.234375" height="200"><path d="M1102.769231 397.784615c0-15.753846-11.815385-27.569231-35.446154-31.507692l-330.830769-47.261538L586.830769 23.630769c-11.815385-15.753846-23.630769-23.630769-35.446154-23.630769s-23.630769 7.876923-31.507692 27.569231L370.215385 319.015385 35.446154 366.276923c-23.630769 3.938462-35.446154 15.753846-35.446154 31.507692 0 7.876923 3.938462 19.692308 15.753846 31.507693l240.246154 228.430769-55.138462 322.953846v11.815385c0 7.876923 3.938462 15.753846 7.876924 23.630769s7.876923 7.876923 19.692307 7.876923c7.876923 0 15.753846-3.938462 27.569231-7.876923l299.323077-153.6 299.323077 153.6c7.876923 3.938462 19.692308 7.876923 27.569231 7.876923 19.692308 0 27.569231-11.815385 27.56923-31.507692v-11.815385l-55.138461-322.953846 240.246154-228.430769c3.938462-11.815385 7.876923-23.630769 7.876923-31.507693z" fill="#bfbfbf" p-id="2793" data-spm-anchor-id="a313x.search_index.0.i4.662f3a81traKO3" class="selected"></path></svg>